<mxfile host="Electron" modified="2023-11-29T01:57:43.052Z" agent="Mozilla/5.0 (Windows NT 10.0; Win64; x64) AppleWebKit/537.36 (KHTML, like Gecko) draw.io/22.1.2 Chrome/114.0.5735.289 Electron/25.9.4 Safari/537.36" etag="GCChxvOe0jeDlZEhFQgc" version="22.1.2" type="device">
  <diagram name="Página-1" id="Mx50E0e02tnbJ2UZ2M87">
    <mxGraphModel dx="1036" dy="614" grid="1" gridSize="10" guides="1" tooltips="1" connect="1" arrows="1" fold="1" page="1" pageScale="1" pageWidth="827" pageHeight="1169" math="0" shadow="0">
      <root>
        <mxCell id="0" />
        <mxCell id="1" parent="0" />
        <mxCell id="pMy1tKW8-WPjoZWShF1K-3" value="" style="edgeStyle=orthogonalEdgeStyle;rounded=0;orthogonalLoop=1;jettySize=auto;html=1;" edge="1" parent="1" source="pMy1tKW8-WPjoZWShF1K-1" target="pMy1tKW8-WPjoZWShF1K-2">
          <mxGeometry relative="1" as="geometry" />
        </mxCell>
        <mxCell id="pMy1tKW8-WPjoZWShF1K-1" value="Incluir biblioteca Arduino.h" style="rounded=0;whiteSpace=wrap;html=1;fillColor=#fff2cc;strokeColor=#d6b656;" vertex="1" parent="1">
          <mxGeometry x="180" y="40" width="120" height="60" as="geometry" />
        </mxCell>
        <mxCell id="pMy1tKW8-WPjoZWShF1K-5" value="" style="edgeStyle=orthogonalEdgeStyle;rounded=0;orthogonalLoop=1;jettySize=auto;html=1;" edge="1" parent="1" source="pMy1tKW8-WPjoZWShF1K-2" target="pMy1tKW8-WPjoZWShF1K-4">
          <mxGeometry relative="1" as="geometry" />
        </mxCell>
        <mxCell id="pMy1tKW8-WPjoZWShF1K-2" value="Asignar la señal de control del servomotor al pin 11" style="rounded=0;whiteSpace=wrap;html=1;fillColor=#dae8fc;strokeColor=#6c8ebf;" vertex="1" parent="1">
          <mxGeometry x="180" y="140" width="120" height="60" as="geometry" />
        </mxCell>
        <mxCell id="pMy1tKW8-WPjoZWShF1K-7" value="" style="edgeStyle=orthogonalEdgeStyle;rounded=0;orthogonalLoop=1;jettySize=auto;html=1;" edge="1" parent="1" source="pMy1tKW8-WPjoZWShF1K-4" target="pMy1tKW8-WPjoZWShF1K-6">
          <mxGeometry relative="1" as="geometry" />
        </mxCell>
        <mxCell id="pMy1tKW8-WPjoZWShF1K-4" value="Girar motor 180 grados" style="rounded=0;whiteSpace=wrap;html=1;fillColor=#d5e8d4;strokeColor=#82b366;" vertex="1" parent="1">
          <mxGeometry x="180" y="260" width="120" height="60" as="geometry" />
        </mxCell>
        <mxCell id="pMy1tKW8-WPjoZWShF1K-9" value="" style="edgeStyle=orthogonalEdgeStyle;rounded=0;orthogonalLoop=1;jettySize=auto;html=1;" edge="1" parent="1" source="pMy1tKW8-WPjoZWShF1K-6" target="pMy1tKW8-WPjoZWShF1K-8">
          <mxGeometry relative="1" as="geometry" />
        </mxCell>
        <mxCell id="pMy1tKW8-WPjoZWShF1K-6" value="delay 15ms" style="rounded=0;whiteSpace=wrap;html=1;fillColor=#e1d5e7;strokeColor=#9673a6;" vertex="1" parent="1">
          <mxGeometry x="180" y="360" width="120" height="60" as="geometry" />
        </mxCell>
        <mxCell id="pMy1tKW8-WPjoZWShF1K-13" value="" style="edgeStyle=orthogonalEdgeStyle;rounded=0;orthogonalLoop=1;jettySize=auto;html=1;" edge="1" parent="1" source="pMy1tKW8-WPjoZWShF1K-8" target="pMy1tKW8-WPjoZWShF1K-12">
          <mxGeometry relative="1" as="geometry" />
        </mxCell>
        <mxCell id="pMy1tKW8-WPjoZWShF1K-8" value="Girar motor 180 grados" style="rounded=0;whiteSpace=wrap;html=1;fillColor=#ffe6cc;strokeColor=#d79b00;" vertex="1" parent="1">
          <mxGeometry x="360" y="360" width="120" height="60" as="geometry" />
        </mxCell>
        <mxCell id="pMy1tKW8-WPjoZWShF1K-14" value="" style="edgeStyle=orthogonalEdgeStyle;rounded=0;orthogonalLoop=1;jettySize=auto;html=1;" edge="1" parent="1" source="pMy1tKW8-WPjoZWShF1K-12" target="pMy1tKW8-WPjoZWShF1K-4">
          <mxGeometry relative="1" as="geometry" />
        </mxCell>
        <mxCell id="pMy1tKW8-WPjoZWShF1K-12" value="delay 15ms" style="rounded=0;whiteSpace=wrap;html=1;fillColor=#fff2cc;strokeColor=#d6b656;" vertex="1" parent="1">
          <mxGeometry x="360" y="260" width="120" height="60" as="geometry" />
        </mxCell>
      </root>
    </mxGraphModel>
  </diagram>
</mxfile>
